<svg width="40" height="40" viewBox="0 0 40 40" fill="none" xmlns="http://www.w3.org/2000/svg">
<rect width="40" height="40" rx="20" fill="#4B0082"/>
<path d="M11.6668 28.9582C11.5001 28.9582 11.3418 28.8915 11.2251 28.7749C11.0668 28.6165 11.0001 28.3832 11.0585 28.1665L12.1085 24.2415C11.4085 22.9415 11.0418 21.4749 11.0418 19.9915C11.0418 15.0499 15.0584 11.0332 20.0001 11.0332C24.9418 11.0332 28.9584 15.0499 28.9584 19.9915C28.9584 24.9332 24.9418 28.9499 20.0001 28.9499C18.4918 28.9499 17.0168 28.5749 15.7001 27.8582L11.8335 28.9332C11.7751 28.9499 11.7251 28.9582 11.6668 28.9582ZM15.7835 26.5665C15.8918 26.5665 16.0001 26.5999 16.1001 26.6499C17.2751 27.3416 18.6251 27.7082 20.0001 27.7082C24.2501 27.7082 27.7084 24.2499 27.7084 19.9999C27.7084 15.7499 24.2501 12.2915 20.0001 12.2915C15.7501 12.2915 12.2918 15.7499 12.2918 19.9999C12.2918 21.3582 12.6501 22.6832 13.3251 23.8499C13.4084 23.9915 13.4335 24.1665 13.3918 24.3249L12.5585 27.4415L15.6251 26.5915C15.6751 26.5749 15.7334 26.5665 15.7835 26.5665Z" fill="white"/>
<path d="M22.2835 24.7999C21.7669 24.7999 21.2335 24.6832 20.6752 24.4416C20.1502 24.2166 19.6252 23.9166 19.1169 23.5416C18.6169 23.1749 18.1252 22.7582 17.6752 22.3082C17.2252 21.8499 16.8085 21.3666 16.4419 20.8666C16.0669 20.3416 15.7668 19.8249 15.5502 19.3166C15.3168 18.7666 15.2002 18.2249 15.2002 17.7082C15.2002 17.3416 15.2668 16.9916 15.3918 16.6666C15.5252 16.3249 15.7419 16.0166 16.0252 15.7499C16.5585 15.2249 17.3252 15.0333 17.9336 15.3249C18.1419 15.4166 18.3169 15.5666 18.4502 15.7666L19.4169 17.1249C19.5169 17.2582 19.5919 17.3999 19.6502 17.5416C19.7169 17.7082 19.7586 17.8749 19.7586 18.0333C19.7586 18.2499 19.7002 18.4666 19.5835 18.6583C19.5085 18.7833 19.4002 18.9333 19.2585 19.0749L19.1502 19.1916C19.2002 19.2582 19.2585 19.3416 19.3502 19.4416C19.5252 19.6416 19.7168 19.8582 19.9252 20.0666C20.1335 20.2666 20.3418 20.4666 20.5502 20.6416C20.6502 20.7249 20.7336 20.7916 20.8002 20.8332L20.9168 20.7166C21.0668 20.5666 21.2169 20.4499 21.3669 20.3749C21.6419 20.1999 22.0669 20.1583 22.4419 20.3166C22.5752 20.3666 22.7085 20.4416 22.8502 20.5416L24.2419 21.5249C24.4336 21.6582 24.5835 21.8416 24.6835 22.0499C24.7669 22.2582 24.8002 22.4416 24.8002 22.6332C24.8002 22.8832 24.7419 23.1249 24.6335 23.3582C24.5252 23.5749 24.4002 23.7666 24.2502 23.9416C23.9835 24.2333 23.6752 24.4499 23.3419 24.5916C23.0085 24.7333 22.6502 24.7999 22.2835 24.7999ZM17.3252 16.4499C17.2752 16.4499 17.1086 16.4499 16.9002 16.6582C16.7419 16.8082 16.6335 16.9666 16.5585 17.1416C16.4835 17.3166 16.4502 17.5166 16.4502 17.7166C16.4502 18.0666 16.5335 18.4416 16.7002 18.8416C16.8752 19.2582 17.1335 19.6999 17.4502 20.1416C17.7752 20.5833 18.1419 21.0249 18.5502 21.4332C18.9585 21.8332 19.3919 22.2082 19.8419 22.5416C20.2752 22.8582 20.7169 23.1082 21.1585 23.2999C21.7919 23.5749 22.3752 23.6416 22.8502 23.4416C23.0169 23.3749 23.1669 23.2583 23.3169 23.1083C23.3919 23.0249 23.4502 22.9416 23.5002 22.8332C23.5252 22.7749 23.5419 22.7082 23.5419 22.6499C23.5419 22.6332 23.5418 22.6083 23.5168 22.5583L22.1252 21.5916C22.0669 21.5499 22.0085 21.5166 21.9585 21.4999C21.9252 21.5166 21.8752 21.5416 21.7835 21.6332L21.4669 21.9499C21.2252 22.1916 20.8419 22.2582 20.5335 22.1499L20.3836 22.0832C20.1919 21.9832 19.9752 21.8333 19.7335 21.6249C19.5002 21.4249 19.2752 21.2166 19.0336 20.9832C18.8002 20.7416 18.5919 20.5166 18.3919 20.2832C18.1752 20.0249 18.0252 19.8166 17.9252 19.6416L17.8336 19.4249C17.8086 19.3416 17.8002 19.2499 17.8002 19.1666C17.8002 18.9332 17.8836 18.7249 18.0419 18.5582L18.3586 18.2333C18.4502 18.1416 18.4835 18.0916 18.5002 18.0583C18.4752 17.9999 18.4419 17.9499 18.4002 17.8916L17.4252 16.5166L17.3252 16.4499Z" fill="white"/>
</svg>
